<svg xmlns="http://www.w3.org/2000/svg" xmlns:xlink="http://www.w3.org/1999/xlink" width="500" zoomAndPan="magnify" viewBox="0 0 375 374.999991" height="500" preserveAspectRatio="xMidYMid meet" version="1.0"><defs><clipPath id="8d024e1be5"><path d="M 207 49.519531 L 350.945312 49.519531 L 350.945312 250 L 207 250 Z M 207 49.519531 " clip-rule="nonzero"/></clipPath><clipPath id="9395bc8239"><path d="M 23.945312 107 L 188 107 L 188 325.519531 L 23.945312 325.519531 Z M 23.945312 107 " clip-rule="nonzero"/></clipPath><clipPath id="df0dc31b81"><path d="M 110 85 L 350.945312 85 L 350.945312 325.519531 L 110 325.519531 Z M 110 85 " clip-rule="nonzero"/></clipPath></defs><rect x="-37.5" width="450" fill="#ffffff" y="-37.499999" height="449.999989" fill-opacity="1"/><rect x="-37.5" width="450" fill="#ffffff" y="-37.499999" height="449.999989" fill-opacity="1"/><rect x="-37.5" width="450" fill="#f3f3eb" y="-37.499999" height="449.999989" fill-opacity="1"/><g clip-path="url(#8d024e1be5)"><path fill="#201e50" d="M 274.234375 49.375 C 245.785156 49.375 220.90625 64.964844 207.660156 88.066406 C 217.617188 90.769531 226.925781 95.480469 235.089844 101.988281 C 243.214844 88.871094 257.71875 80.109375 274.234375 80.109375 C 299.609375 80.109375 320.257812 100.789062 320.257812 126.207031 L 320.257812 186.582031 L 328.472656 194.808594 C 342.964844 209.320312 350.945312 228.613281 350.945312 249.132812 L 350.945312 126.207031 C 350.945312 83.839844 316.53125 49.375 274.234375 49.375 Z M 274.234375 49.375 " fill-opacity="1" fill-rule="nonzero"/></g><path fill="#010101" d="M 136.042969 105.179688 C 136.097656 105.125 136.160156 105.074219 136.222656 105.019531 C 136.160156 105.074219 136.097656 105.125 136.042969 105.179688 Z M 136.042969 105.179688 " fill-opacity="1" fill-rule="nonzero"/><path fill="#010101" d="M 134.59375 106.523438 C 134.726562 106.398438 134.863281 106.273438 135.003906 106.148438 C 134.863281 106.273438 134.726562 106.398438 134.59375 106.523438 Z M 134.59375 106.523438 " fill-opacity="1" fill-rule="nonzero"/><path fill="#010101" d="M 133.203125 107.882812 C 133.390625 107.695312 133.574219 107.515625 133.769531 107.328125 C 133.574219 107.515625 133.390625 107.695312 133.203125 107.882812 C 133.195312 107.890625 133.179688 107.90625 133.175781 107.914062 Z M 133.203125 107.882812 " fill-opacity="1" fill-rule="nonzero"/><g clip-path="url(#9395bc8239)"><path fill="#ffffff" d="M 46.414062 303.460938 C 60.902344 317.972656 80.164062 325.964844 100.65625 325.964844 C 121.144531 325.964844 140.40625 317.972656 154.894531 303.460938 L 187.445312 270.859375 L 165.742188 249.132812 L 133.195312 281.730469 C 124.503906 290.4375 112.941406 295.230469 100.648438 295.230469 C 88.351562 295.230469 76.792969 290.4375 68.101562 281.730469 C 59.414062 273.027344 54.628906 261.449219 54.628906 249.132812 C 54.628906 236.820312 59.414062 225.242188 68.105469 216.535156 L 111.527344 173.046875 C 108.273438 149.953125 115.484375 125.644531 133.167969 107.914062 L 46.414062 194.808594 C 31.921875 209.320312 23.945312 228.613281 23.945312 249.132812 C 23.945312 269.652344 31.921875 288.953125 46.414062 303.460938 Z M 46.414062 303.460938 " fill-opacity="1" fill-rule="nonzero"/></g><path fill="#010101" d="M 133.761719 107.328125 C 134.039062 107.058594 134.308594 106.789062 134.585938 106.523438 C 134.316406 106.789062 134.039062 107.058594 133.761719 107.328125 Z M 133.761719 107.328125 " fill-opacity="1" fill-rule="nonzero"/><path fill="#010101" d="M 134.996094 106.148438 C 135.34375 105.824219 135.6875 105.496094 136.042969 105.179688 C 135.6875 105.496094 135.34375 105.824219 134.996094 106.148438 Z M 134.996094 106.148438 " fill-opacity="1" fill-rule="nonzero"/><g clip-path="url(#df0dc31b81)"><path fill="#4540ca" d="M 328.472656 194.808594 L 320.257812 186.582031 L 241.683594 107.882812 C 241.539062 107.738281 241.394531 107.601562 241.25 107.453125 C 240.929688 107.140625 240.609375 106.828125 240.292969 106.519531 C 240.167969 106.398438 240.050781 106.289062 239.925781 106.179688 C 239.566406 105.839844 239.207031 105.503906 238.84375 105.171875 C 238.796875 105.125 238.742188 105.082031 238.691406 105.035156 C 237.515625 103.972656 236.308594 102.957031 235.089844 101.988281 C 235.089844 101.988281 235.089844 101.988281 235.089844 101.980469 C 226.925781 95.472656 217.617188 90.761719 207.660156 88.058594 C 207.65625 88.070312 207.648438 88.085938 207.640625 88.097656 C 201.039062 86.308594 194.246094 85.40625 187.449219 85.40625 C 169.101562 85.40625 150.753906 91.941406 136.222656 105.011719 C 136.167969 105.066406 136.105469 105.117188 136.042969 105.171875 C 135.6875 105.492188 135.34375 105.816406 134.996094 106.144531 C 134.863281 106.269531 134.726562 106.394531 134.585938 106.519531 C 134.308594 106.78125 134.035156 107.050781 133.761719 107.324219 C 133.574219 107.511719 133.382812 107.691406 133.195312 107.878906 L 133.167969 107.90625 C 115.484375 125.636719 108.265625 149.945312 111.527344 173.039062 C 113.773438 188.960938 120.996094 204.304688 133.203125 216.527344 L 165.75 249.125 L 187.449219 270.855469 L 220 303.453125 L 220.027344 303.425781 L 220 303.453125 C 233.539062 317.015625 251.25 324.882812 270.234375 325.851562 C 270.257812 325.851562 270.285156 325.851562 270.304688 325.859375 C 270.867188 325.886719 271.425781 325.910156 271.996094 325.921875 C 272.09375 325.921875 272.1875 325.929688 272.277344 325.9375 C 272.929688 325.949219 273.582031 325.964844 274.238281 325.964844 C 274.898438 325.964844 275.546875 325.957031 276.199219 325.9375 C 276.296875 325.9375 276.394531 325.929688 276.484375 325.921875 C 277.042969 325.910156 277.613281 325.886719 278.171875 325.859375 C 278.195312 325.859375 278.222656 325.859375 278.242188 325.851562 C 297.226562 324.882812 314.941406 317.015625 328.480469 303.453125 C 342.023438 289.890625 349.875 272.152344 350.847656 253.136719 C 350.847656 253.117188 350.847656 253.089844 350.851562 253.066406 C 350.882812 252.503906 350.902344 251.945312 350.914062 251.375 C 350.914062 251.277344 350.921875 251.1875 350.929688 251.089844 C 350.945312 250.4375 350.957031 249.785156 350.957031 249.125 C 350.945312 228.613281 342.964844 209.320312 328.472656 194.808594 Z M 320.203125 251.484375 C 320.195312 251.597656 320.183594 251.707031 320.175781 251.820312 C 320.132812 252.492188 320.09375 253.171875 320.023438 253.835938 C 320.023438 253.859375 320.015625 253.878906 320.015625 253.898438 C 317.792969 275.515625 300.585938 292.753906 278.996094 294.988281 C 278.976562 294.988281 278.949219 294.996094 278.929688 294.996094 C 278.265625 295.066406 277.59375 295.113281 276.914062 295.148438 C 276.800781 295.15625 276.691406 295.167969 276.582031 295.175781 C 275.804688 295.21875 275.023438 295.238281 274.234375 295.238281 C 273.441406 295.238281 272.667969 295.21875 271.882812 295.175781 C 271.773438 295.167969 271.664062 295.15625 271.550781 295.148438 C 270.878906 295.105469 270.207031 295.066406 269.535156 294.996094 C 269.515625 294.996094 269.488281 294.988281 269.46875 294.988281 C 258.972656 293.914062 249.25 289.308594 241.683594 281.730469 L 209.136719 249.132812 L 197.515625 237.492188 L 187.4375 227.398438 L 154.890625 194.800781 C 136.949219 176.832031 136.941406 147.601562 154.875 129.625 C 154.882812 129.617188 154.882812 129.617188 154.890625 129.613281 C 155.011719 129.488281 155.136719 129.375 155.261719 129.257812 C 155.699219 128.835938 156.136719 128.40625 156.585938 128.003906 C 156.710938 127.882812 156.84375 127.78125 156.972656 127.667969 C 157.4375 127.261719 157.894531 126.859375 158.371094 126.46875 C 158.421875 126.433594 158.464844 126.398438 158.511719 126.359375 C 166.679688 119.726562 176.777344 116.113281 187.4375 116.113281 C 191.050781 116.113281 194.597656 116.535156 198.027344 117.339844 C 204.640625 118.894531 210.820312 121.898438 216.175781 126.207031 C 216.242188 126.261719 216.3125 126.308594 216.375 126.367188 C 216.417969 126.398438 216.457031 126.425781 216.5 126.460938 C 216.984375 126.859375 217.457031 127.265625 217.921875 127.683594 C 218.039062 127.789062 218.164062 127.890625 218.28125 127.996094 C 218.75 128.425781 219.214844 128.871094 219.671875 129.320312 C 219.769531 129.417969 219.875 129.507812 219.96875 129.605469 L 228.183594 137.832031 L 263.371094 173.074219 L 306.757812 216.527344 C 315.453125 225.234375 320.238281 236.8125 320.238281 249.125 C 320.257812 249.925781 320.238281 250.707031 320.203125 251.484375 Z M 320.203125 251.484375 " fill-opacity="1" fill-rule="nonzero"/></g></svg>