<svg width="541" height="586" viewBox="0 0 541 586" fill="none" xmlns="http://www.w3.org/2000/svg">
<path d="M367.015 160.082L343.646 167.815L367.015 175.605L390.384 167.815L367.015 160.082Z" fill="#E5EAF4"/>
<path d="M343.646 167.815V298.941H367.015V175.605L343.646 167.815Z" fill="#CFD6E4"/>
<path d="M390.383 167.815V298.941H367.015V175.605L390.383 167.815Z" fill="#F0F2F7"/>
<path d="M273.257 137.561L249.889 145.35L273.257 153.14L296.683 145.35L273.257 137.561Z" fill="#E5EAF4"/>
<path d="M249.889 145.35V276.475H273.257V153.14L249.889 145.35Z" fill="#B1BDD2"/>
<path d="M296.684 145.35V276.475H273.259V153.14L296.684 145.35Z" fill="#F0F2F7"/>
<path d="M140.043 150.713L113.288 159.575L140.043 168.494L166.799 159.575L140.043 150.713Z" fill="#E5EAF4"/>
<path d="M113.288 159.575V309.497H140.044V168.493L113.288 159.575Z" fill="#CFD6E4"/>
<path d="M166.799 159.575V309.497H140.043V168.493L166.799 159.575Z" fill="#F0F2F7"/>
<path d="M206.369 86.646L152.801 104.483L206.369 122.264L259.937 104.483L206.369 86.646Z" fill="#E5EAF4"/>
<path d="M152.801 104.483V404.723H206.369V122.264L152.801 104.483Z" fill="#CFD6E4"/>
<path d="M259.938 104.483V404.723H206.37V122.264L259.938 104.483Z" fill="#F0F2F7"/>
<path d="M417.648 77.5576L379.942 90.2017L417.648 102.846L455.411 90.2017L417.648 77.5576Z" fill="#E5EAF4"/>
<path d="M379.942 90.2017V303.57H417.648V102.846L379.942 90.2017Z" fill="#CFD6E4"/>
<path d="M455.411 90.2017V303.57H417.648V102.846L455.411 90.2017Z" fill="#F0F2F7"/>
<path d="M462.917 208.401L409.293 226.182L462.917 244.019L516.541 226.182L462.917 208.401Z" fill="#E5EAF4"/>
<path d="M409.293 226.182V526.647H462.917V244.019L409.293 226.182Z" fill="#CFD6E4"/>
<path d="M516.542 226.182V526.647H462.917V244.019L516.542 226.182Z" fill="#F0F2F7"/>
<path d="M93.25 195.813L55.2051 208.458L93.25 221.102L131.295 208.458L93.25 195.813Z" fill="#E5EAF4"/>
<path d="M55.2051 208.458V421.656H93.25V221.102L55.2051 208.458Z" fill="#CFD6E4"/>
<path d="M131.295 208.458V421.656H93.2505V221.102L131.295 208.458Z" fill="#F0F2F7"/>
<path d="M144.276 240.569L124.125 247.23L144.276 253.947L164.484 247.23L144.276 240.569Z" fill="#E5EAF4"/>
<path d="M124.125 247.229V360.292H144.277V253.947L124.125 247.229Z" fill="#CFD6E4"/>
<path d="M164.485 247.229V360.292H144.277V253.947L164.485 247.229Z" fill="#F0F2F7"/>
<path d="M20.1514 239.051L0 245.768L20.1514 252.486L40.3593 245.768L20.1514 239.051Z" fill="#E5EAF4"/>
<path d="M0 245.769V358.831H20.1514V252.486L0 245.769Z" fill="#CFD6E4"/>
<path d="M40.3597 245.769V358.831H20.1518V252.486L40.3597 245.769Z" fill="#F0F2F7"/>
<path d="M317.342 185.258L249.889 207.667L317.342 230.133L384.852 207.667L317.342 185.258Z" fill="#E5EAF4"/>
<path d="M249.889 207.667V585.859H317.342V230.133L249.889 207.667Z" fill="#CFD6E4"/>
<path d="M384.851 207.667V585.859H317.341V230.133L384.851 207.667Z" fill="#F0F2F7"/>
<path d="M345.112 142.471L330.21 138.181C330.606 138.238 330.944 138.294 331.283 138.35C331.622 138.407 332.017 138.463 332.355 138.576L347.257 142.866C346.919 142.81 346.523 142.697 346.185 142.64C345.846 142.64 345.564 142.528 345.112 142.471Z" fill="#808A9D"/>
<path d="M347.259 142.866L332.357 138.576C332.696 138.633 333.034 138.746 333.373 138.858L348.275 143.148C347.936 143.035 347.597 142.923 347.259 142.866Z" fill="#A6B0C3"/>
<path d="M327.841 210.602L312.939 206.312C312.939 202.53 312.939 198.692 312.939 194.854L327.841 199.143C327.897 202.982 327.897 206.764 327.841 210.602Z" fill="#A7ACBA"/>
<path d="M345.001 166.179C345.001 166.01 345.001 165.897 345.001 165.727C345.001 165.615 345.001 165.502 345.001 165.332C345.001 165.276 345.001 165.219 345.001 165.107C345.001 164.824 344.945 164.599 344.945 164.316C344.945 164.147 344.945 164.034 344.888 163.921C344.832 163.583 344.775 163.3 344.719 163.018C344.719 162.962 344.719 162.849 344.663 162.792C344.606 162.397 344.493 162.058 344.38 161.663C344.38 161.55 344.324 161.494 344.267 161.381C344.211 161.099 344.098 160.873 343.985 160.591C343.929 160.478 343.872 160.365 343.816 160.196C343.703 159.97 343.647 159.744 343.534 159.575C343.477 159.462 343.421 159.349 343.364 159.236C343.251 159.067 343.139 158.841 343.026 158.672C342.969 158.559 342.913 158.446 342.8 158.333C342.687 158.164 342.518 157.938 342.405 157.769C342.348 157.656 342.292 157.599 342.179 157.486C341.953 157.261 341.727 156.978 341.502 156.753C340.542 155.849 339.469 155.285 338.341 154.946L323.439 150.656C324.568 150.995 325.584 151.559 326.6 152.463C326.825 152.688 327.051 152.914 327.277 153.196C327.333 153.253 327.39 153.366 327.503 153.479C327.616 153.648 327.785 153.817 327.898 154.043C327.954 154.156 328.011 154.269 328.124 154.382C328.237 154.551 328.349 154.777 328.462 154.946C328.519 155.059 328.575 155.172 328.632 155.285C328.745 155.511 328.801 155.68 328.914 155.906C328.97 156.019 329.027 156.132 329.083 156.301C329.196 156.527 329.253 156.809 329.366 157.091C329.422 157.204 329.422 157.261 329.478 157.373C329.591 157.712 329.648 158.107 329.761 158.502C329.761 158.559 329.761 158.672 329.817 158.728C329.874 159.01 329.93 159.349 329.986 159.631C329.986 159.744 329.986 159.914 330.043 160.026C330.043 160.309 330.099 160.534 330.099 160.817C330.099 160.986 330.099 161.212 330.099 161.381C330.099 161.55 330.099 161.663 330.099 161.833C330.099 162.058 330.099 162.284 330.099 162.51C330.099 162.679 330.099 162.792 330.099 162.962C330.099 163.075 330.099 163.187 330.043 163.3C329.986 163.695 329.986 164.091 329.93 164.486C329.93 164.599 329.874 164.768 329.874 164.881C329.817 165.219 329.761 165.615 329.648 165.953C329.648 166.01 329.591 166.123 329.591 166.179C329.478 166.631 329.366 167.026 329.253 167.477C329.14 167.816 329.027 168.211 328.858 168.55C328.745 168.832 328.632 169.058 328.519 169.284C328.462 169.453 328.349 169.622 328.293 169.792C328.237 169.961 328.18 170.074 328.067 170.243C328.011 170.413 327.898 170.582 327.841 170.695C327.785 170.864 327.672 170.977 327.616 171.09C327.503 171.259 327.39 171.429 327.333 171.654C327.277 171.767 327.221 171.88 327.108 171.993C326.995 172.162 326.882 172.332 326.769 172.501C326.713 172.614 326.656 172.727 326.6 172.783C326.317 173.178 326.035 173.574 325.753 173.969C325.697 174.025 325.64 174.082 325.584 174.138C325.301 174.477 324.963 174.815 324.68 175.154C324.624 175.211 324.568 175.267 324.511 175.323C324.229 175.549 324.003 175.831 323.721 176.057L323.664 176.114C323.382 176.339 323.1 176.565 322.761 176.791C322.648 176.847 322.592 176.904 322.479 176.96C322.366 177.017 322.253 177.13 322.084 177.186C321.971 177.243 321.858 177.299 321.745 177.355C321.632 177.412 321.519 177.468 321.35 177.525C321.237 177.581 321.124 177.638 321.011 177.694C320.899 177.751 320.729 177.807 320.616 177.863C320.503 177.92 320.391 177.976 320.278 178.033C320.165 178.089 319.995 178.146 319.883 178.202C319.713 178.259 319.544 178.315 319.375 178.372C317.738 178.823 316.101 179.275 314.464 179.726C311.867 180.404 309.214 181.137 306.618 181.815C306.392 181.871 306.166 181.928 305.884 181.984L320.786 186.274C321.068 186.218 321.294 186.161 321.519 186.105C324.116 185.427 326.769 184.694 329.366 184.016C331.002 183.565 332.639 183.113 334.276 182.661C334.389 182.661 334.446 182.605 334.559 182.549C334.615 182.549 334.728 182.492 334.784 182.492C334.897 182.436 335.067 182.379 335.18 182.323C335.292 182.266 335.405 182.21 335.518 182.153C335.631 182.097 335.8 182.041 335.913 181.984C336.026 181.928 336.139 181.871 336.252 181.815C336.365 181.758 336.534 181.702 336.647 181.645C336.76 181.589 336.873 181.533 336.986 181.476C337.099 181.42 337.212 181.307 337.324 181.25C337.381 181.194 337.437 181.194 337.494 181.137C337.55 181.137 337.55 181.081 337.607 181.081C337.889 180.855 338.228 180.686 338.51 180.404L338.566 180.347C338.849 180.121 339.131 179.896 339.357 179.613C339.413 179.557 339.413 179.557 339.469 179.5L339.526 179.444C339.865 179.105 340.147 178.767 340.429 178.428C340.486 178.372 340.542 178.315 340.598 178.259C340.881 177.863 341.163 177.525 341.445 177.073C341.445 177.073 341.445 177.017 341.502 177.017C341.558 176.96 341.614 176.847 341.671 176.791C341.784 176.622 341.897 176.452 342.01 176.283C342.066 176.17 342.122 176.057 342.235 175.944C342.348 175.775 342.461 175.606 342.518 175.38C342.574 175.323 342.574 175.267 342.63 175.21C342.687 175.154 342.687 175.041 342.743 174.928C342.8 174.759 342.913 174.59 342.969 174.477C343.026 174.307 343.139 174.194 343.195 174.025C343.251 173.856 343.364 173.686 343.421 173.517C343.477 173.461 343.477 173.348 343.534 173.291C343.59 173.122 343.703 172.953 343.759 172.727C343.872 172.388 343.985 172.05 344.098 171.711V171.654C344.211 171.259 344.38 170.808 344.437 170.356C344.437 170.356 344.437 170.356 344.437 170.3C344.437 170.243 344.437 170.187 344.493 170.074C344.606 169.735 344.663 169.34 344.719 169.001C344.719 168.945 344.719 168.888 344.775 168.832C344.775 168.776 344.775 168.663 344.775 168.606C344.832 168.211 344.888 167.816 344.888 167.421C344.888 167.364 344.888 167.252 344.888 167.195C344.888 167.139 344.888 167.082 344.888 167.082C344.888 166.913 344.888 166.8 344.888 166.631C345.001 166.631 345.001 166.405 345.001 166.179Z" fill="#A6B0C3"/>
<path d="M312.883 214.61L297.981 210.32C297.981 206.538 297.981 202.756 297.981 198.861L312.883 203.151C312.883 207.046 312.883 210.828 312.883 214.61Z" fill="#A7ACBA"/>
<path d="M329.986 94.4917C329.703 94.4352 329.421 94.3224 329.082 94.2659C329.026 94.2659 328.97 94.2659 328.913 94.2095C328.687 94.153 328.462 94.153 328.236 94.0966C328.01 94.0401 327.841 94.0401 327.615 93.9837C327.389 93.9837 327.163 93.9272 326.938 93.9272C326.768 93.9272 326.655 93.8708 326.486 93.8708C326.429 93.8708 326.373 93.8708 326.373 93.8708C325.865 93.8708 325.413 93.8143 324.905 93.8708C324.623 93.8708 324.397 93.8708 324.115 93.9272C324.002 93.9272 323.946 93.9272 323.833 93.9837C323.664 93.9837 323.494 94.0401 323.381 94.0401C323.268 94.0401 323.156 94.0966 323.043 94.0966C322.591 94.153 322.14 94.2095 321.688 94.2659L333.26 97.5962L336.59 98.5558C336.646 98.5558 336.759 98.5559 336.816 98.4994C336.985 98.4994 337.154 98.4429 337.267 98.4429C337.775 98.3865 338.227 98.3301 338.678 98.2736C338.791 98.2736 338.848 98.2736 338.961 98.2172C339.243 98.2172 339.469 98.1607 339.751 98.1607C340.259 98.1607 340.767 98.1607 341.218 98.1607C341.444 98.1607 341.614 98.1607 341.839 98.2172C342.065 98.2172 342.291 98.2736 342.517 98.2736C342.743 98.2736 342.912 98.3301 343.138 98.3865C343.363 98.443 343.589 98.443 343.815 98.4994C344.154 98.5559 344.549 98.6687 344.888 98.7252L329.986 94.4917Z" fill="#CFD6E4"/>
<path d="M341.162 124.126C341.162 124.014 341.162 123.844 341.162 123.731C341.162 123.675 341.162 123.618 341.162 123.562C341.162 123.506 341.162 123.449 341.162 123.393C341.162 123.11 341.106 122.885 341.106 122.602C341.106 122.49 341.106 122.377 341.05 122.32C340.993 121.982 340.937 121.643 340.88 121.304C340.146 117.974 338.227 115.659 335.744 114.926L320.842 110.636C323.325 111.37 325.301 113.627 325.978 117.014C326.035 117.353 326.091 117.692 326.148 118.03C326.148 118.143 326.148 118.256 326.204 118.312C326.204 118.595 326.261 118.82 326.261 119.103C326.261 119.216 326.261 119.328 326.261 119.441C326.261 119.554 326.261 119.724 326.261 119.837C326.261 120.006 326.261 120.175 326.261 120.288C326.261 120.401 326.261 120.57 326.261 120.683C326.261 120.796 326.261 120.965 326.261 121.078C326.204 121.473 326.204 121.925 326.091 122.32C326.091 122.377 326.091 122.49 326.035 122.546C325.978 122.885 325.922 123.223 325.809 123.562C325.809 123.675 325.753 123.731 325.753 123.844C325.64 124.239 325.527 124.578 325.414 124.973C325.414 125.03 325.357 125.086 325.357 125.143C325.245 125.481 325.132 125.82 324.962 126.159C324.906 126.271 324.906 126.328 324.849 126.441C324.68 126.836 324.511 127.231 324.341 127.57C324.341 127.626 324.285 127.683 324.285 127.683C324.059 128.134 323.777 128.586 323.495 129.037C323.382 129.207 323.269 129.376 323.156 129.545C323.1 129.602 323.043 129.715 322.987 129.771C322.817 129.997 322.648 130.223 322.422 130.448C322.196 130.731 321.971 130.956 321.745 131.182C321.688 131.239 321.632 131.295 321.576 131.352C321.35 131.577 321.18 131.747 320.955 131.916C320.898 131.973 320.842 132.029 320.785 132.085C320.503 132.311 320.277 132.481 319.995 132.706C319.939 132.706 319.939 132.763 319.882 132.763C319.6 132.989 319.261 133.158 318.923 133.271C318.866 133.271 318.81 133.327 318.81 133.327C318.471 133.497 318.132 133.609 317.794 133.722C317.624 133.779 317.511 133.835 317.342 133.835C313.729 134.795 310.117 135.754 306.504 136.714C306.448 136.714 306.391 136.77 306.278 136.77C306.222 136.77 306.109 136.77 306.053 136.827L320.955 141.117C321.124 141.06 321.293 141.06 321.406 141.004C325.019 140.044 328.631 139.085 332.244 138.125C332.357 138.069 332.47 138.069 332.583 138.012C332.639 138.012 332.639 137.956 332.695 137.956C333.034 137.843 333.373 137.73 333.712 137.561C333.768 137.561 333.824 137.504 333.824 137.504C334.163 137.335 334.445 137.166 334.784 136.996C334.84 136.996 334.84 136.94 334.897 136.94C334.897 136.94 334.897 136.94 334.953 136.883C335.236 136.714 335.518 136.488 335.744 136.262C335.8 136.206 335.856 136.15 335.913 136.093C336.139 135.924 336.365 135.698 336.534 135.529C336.59 135.472 336.59 135.472 336.647 135.416L336.703 135.359C336.929 135.134 337.155 134.851 337.381 134.626C337.55 134.4 337.776 134.174 337.945 133.948C338.001 133.892 338.058 133.779 338.114 133.722C338.227 133.553 338.34 133.384 338.453 133.214C338.735 132.763 339.017 132.311 339.243 131.86C339.243 131.803 339.3 131.803 339.3 131.803V131.747C339.469 131.352 339.695 131.013 339.808 130.618C339.808 130.561 339.864 130.561 339.864 130.505C339.864 130.448 339.921 130.392 339.921 130.336C340.034 129.997 340.203 129.658 340.259 129.32C340.259 129.263 340.316 129.263 340.316 129.207C340.316 129.207 340.316 129.207 340.316 129.15C340.429 128.755 340.542 128.416 340.654 128.021C340.654 127.965 340.654 127.965 340.711 127.908C340.711 127.852 340.711 127.795 340.767 127.739C340.824 127.4 340.937 127.062 340.993 126.723C340.993 126.667 340.993 126.61 341.05 126.554V126.497C341.106 126.102 341.162 125.651 341.219 125.255C341.219 125.199 341.219 125.199 341.219 125.143C341.219 125.03 341.219 124.973 341.219 124.86C341.219 124.747 341.219 124.578 341.219 124.465C341.162 124.409 341.162 124.296 341.162 124.126Z" fill="#A6B0C3"/>
<path d="M328.067 100.87L313.165 96.5802C313.165 92.7419 313.165 88.9599 313.165 85.1216L328.067 89.4115C328.123 93.2499 328.067 97.0318 328.067 100.87Z" fill="#A6B0C3"/>
<path d="M328.067 100.87L313.165 96.5802C313.165 92.7419 313.165 88.9599 313.165 85.1216L328.067 89.4115C328.123 93.2499 328.067 97.0318 328.067 100.87Z" fill="#A6B0C3"/>
<path d="M328.123 89.4116L313.165 85.1216C316.044 84.3314 318.81 83.5976 321.632 82.8638L336.534 87.1537C333.768 87.8875 330.946 88.6213 328.123 89.4116Z" fill="#CFD6E4"/>
<path d="M321.576 102.62L306.674 98.3304C308.875 97.766 311.02 97.145 313.165 96.5806L328.067 100.871C325.866 101.435 323.721 102.056 321.576 102.62Z" fill="#CFD6E4"/>
<path d="M295.103 193.612L280.201 189.322C283.757 188.363 287.256 187.403 290.869 186.443L305.771 190.733C302.215 191.693 298.659 192.652 295.103 193.612Z" fill="#CFD6E4"/>
<path d="M295.103 207.95L280.201 203.66C280.201 198.862 280.201 194.12 280.257 189.322L295.159 193.612C295.103 198.41 295.103 203.152 295.103 207.95Z" fill="#A6B0C3"/>
<path d="M305.772 190.733L290.87 186.443C290.926 163.413 290.982 140.439 291.039 117.296L305.941 121.586C305.884 144.673 305.828 167.703 305.772 190.733Z" fill="#A6B0C3"/>
<path d="M321.576 91.1615L306.674 86.8716C306.618 86.8716 306.561 86.8716 306.561 86.8716C306.561 86.8716 306.561 86.8716 306.505 86.8716H306.448C306.448 86.8716 306.448 86.8716 306.392 86.8716C305.376 87.1538 304.303 87.436 303.287 87.7183C301.707 88.1134 300.183 88.565 298.602 88.9601C298.602 88.9601 298.602 88.9601 298.546 88.9601C298.489 88.9601 298.433 89.0166 298.376 89.0166C298.376 89.0166 298.32 89.0166 298.32 89.073L298.263 89.1294C298.263 89.1294 298.263 89.1295 298.263 89.1859C298.263 89.1859 298.263 89.1859 298.263 89.2423V89.2988V89.3552C298.263 89.4117 298.263 89.4117 298.263 89.4681C298.263 89.581 298.263 89.6375 298.263 89.7504C298.263 93.0807 298.263 96.4111 298.263 99.7414C298.263 100.024 298.263 100.249 298.207 100.588L313.109 104.878C313.109 104.539 313.165 104.257 313.165 104.031C313.165 100.701 313.165 97.3706 313.165 94.0403C313.165 93.9274 313.165 93.871 313.165 93.7581C313.165 93.6452 313.165 93.5887 313.222 93.5323C313.222 93.4759 313.278 93.4194 313.335 93.3629C313.391 93.3065 313.448 93.2501 313.56 93.2501C315.141 92.8549 316.721 92.4034 318.246 92.0082C319.262 91.726 320.334 91.4438 321.35 91.1615C321.407 91.1615 321.407 91.1615 321.463 91.1615C321.463 91.1615 321.519 91.1615 321.576 91.1615Z" fill="#A6B0C3"/>
<path d="M295.272 124.465L280.37 120.175C280.37 115.264 280.37 110.41 280.427 105.442L295.328 109.732C295.272 114.7 295.272 119.554 295.272 124.465Z" fill="#A6B0C3"/>
<path d="M359.677 158.22C360.298 162.284 360.185 166.518 359.225 170.864C358.04 176.283 355.838 181.024 352.621 185.089C350.024 188.306 347.033 190.451 343.984 192.37C341.727 193.838 339.412 195.023 337.154 196.321C336.929 196.434 336.703 196.604 336.421 196.717C336.421 200.555 336.421 204.393 336.421 208.288C333.598 209.078 330.776 209.812 327.954 210.546C327.954 206.764 327.954 202.926 327.954 199.087C325.752 199.652 323.664 200.273 321.462 200.837C321.462 204.676 321.462 208.457 321.462 212.296C318.64 213.03 315.818 213.82 312.995 214.554C312.995 210.772 312.995 206.99 312.995 203.095C307.012 204.676 301.142 206.256 295.158 207.893C295.158 203.095 295.158 198.354 295.215 193.556C298.771 192.596 302.27 191.636 305.883 190.677C305.939 167.647 305.996 144.673 306.052 121.53C302.496 122.489 298.94 123.449 295.384 124.409C295.384 119.498 295.384 114.643 295.44 109.676C301.311 108.095 307.238 106.515 313.221 104.934C313.221 104.596 313.278 104.314 313.278 104.088C313.278 100.757 313.278 97.4271 313.278 94.0968C313.278 93.7016 313.278 93.363 313.673 93.2501C315.253 92.8549 316.834 92.4034 318.358 92.0082C319.374 91.726 320.446 91.4438 321.462 91.1615C321.519 91.1615 321.575 91.1615 321.688 91.1615C321.688 94.9435 321.688 98.7254 321.688 102.62C323.889 102.056 326.034 101.435 328.179 100.87C328.179 97.032 328.179 93.25 328.179 89.4117C331.058 88.6214 333.824 87.8876 336.646 87.1538C336.646 90.9922 336.646 94.7741 336.646 98.556C337.775 98.4431 338.848 98.2738 339.864 98.2174C344.267 98.1045 348.161 99.2898 351.266 102.902C353.467 105.555 354.766 109.055 355.387 113.176C356.008 117.522 356.064 122.038 355.104 126.779C353.637 133.779 350.419 138.915 345.509 142.246C345.452 142.302 345.396 142.302 345.283 142.471C345.678 142.528 346.017 142.584 346.355 142.641C350.363 143.262 353.806 145.124 356.403 148.793C358.096 151.334 359.112 154.551 359.677 158.22ZM343.702 172.896C346.073 166.913 345.113 159.97 341.614 156.809C339.469 154.833 336.929 154.269 334.05 155.059C330.268 156.075 326.43 157.091 322.648 158.107C322.083 158.276 321.462 158.446 320.841 158.615C320.841 167.929 320.785 177.13 320.785 186.5C321.067 186.443 321.293 186.387 321.519 186.33C324.115 185.653 326.768 184.919 329.365 184.242C331.002 183.79 332.639 183.339 334.276 182.887C338.396 181.589 341.614 178.315 343.702 172.896ZM320.898 117.974C320.898 125.707 320.841 133.44 320.841 141.23C321.011 141.173 321.18 141.173 321.293 141.117C324.906 140.157 328.518 139.198 332.131 138.238C333.993 137.73 335.743 136.601 337.324 134.738C340.372 131.182 341.839 125.707 340.88 121.248C339.864 116.506 336.308 113.853 332.3 114.869C330.832 115.264 329.421 115.659 327.954 115.998C325.809 116.562 323.607 117.183 321.406 117.748C321.293 117.861 321.124 117.917 320.898 117.974Z" fill="#DEE5F1"/>
<path d="M295.272 109.732L280.37 105.442C286.241 103.862 292.167 102.281 298.151 100.701L313.053 104.991C307.069 106.571 301.199 108.152 295.272 109.732Z" fill="#CFD6E4"/>
<path d="M313.278 93.3629C313.335 93.3065 313.391 93.2501 313.504 93.2501C315.085 92.8549 316.665 92.4034 318.189 92.0082C319.205 91.726 320.278 91.4438 321.294 91.1615C321.35 91.1615 321.35 91.1615 321.407 91.1615C321.463 91.1615 321.52 91.1615 321.576 91.1615L306.674 86.8716C306.618 86.8716 306.561 86.8716 306.561 86.8716C306.561 86.8716 306.561 86.8716 306.505 86.8716H306.448C306.448 86.8716 306.448 86.8716 306.392 86.8716C305.376 87.1538 304.303 87.436 303.287 87.7183C301.707 88.1134 300.183 88.565 298.602 88.9601C298.602 88.9601 298.602 88.9601 298.546 88.9601C298.489 88.9601 298.433 89.0166 298.377 89.0166C298.377 89.0166 298.32 89.0166 298.32 89.073L298.264 89.1294C298.264 89.1294 298.264 89.1295 298.264 89.1859C298.264 89.1859 298.264 89.1859 298.264 89.2423V89.2988V89.3552V89.4117L313.166 93.5887C313.166 93.4758 313.222 93.4194 313.278 93.3629Z" fill="#CFD6E4"/>
<path d="M206.368 113.401C222.142 113.401 234.93 109.055 234.93 103.693C234.93 98.3307 222.142 93.9839 206.368 93.9839C190.594 93.9839 177.806 98.3307 177.806 103.693C177.806 109.055 190.594 113.401 206.368 113.401Z" fill="#CFD6E4"/>
<path d="M234.93 94.0405H177.749V103.749H234.93V94.0405Z" fill="#CFD6E4"/>
<path d="M206.369 103.749C222.143 103.749 234.931 99.4024 234.931 94.0404C234.931 88.6783 222.143 84.3315 206.369 84.3315C190.594 84.3315 177.807 88.6783 177.807 94.0404C177.807 99.4024 190.594 103.749 206.369 103.749Z" fill="#D9E0EF"/>
<path d="M210.828 97.2013C226.602 97.2013 239.39 92.8545 239.39 87.4925C239.39 82.1305 226.602 77.7837 210.828 77.7837C195.053 77.7837 182.266 82.1305 182.266 87.4925C182.266 92.8545 195.053 97.2013 210.828 97.2013Z" fill="#A6B0C3"/>
<path d="M239.446 77.7837H182.266V87.4925H239.446V77.7837Z" fill="#A6B0C3"/>
<path d="M210.828 87.4923C226.602 87.4923 239.39 83.1455 239.39 77.7835C239.39 72.4215 226.602 68.0747 210.828 68.0747C195.053 68.0747 182.266 72.4215 182.266 77.7835C182.266 83.1455 195.053 87.4923 210.828 87.4923Z" fill="#D9E0EF"/>
<path d="M202.304 88.2262C218.078 88.2262 230.866 83.8794 230.866 78.5174C230.866 73.1554 218.078 68.8086 202.304 68.8086C186.529 68.8086 173.742 73.1554 173.742 78.5174C173.742 83.8794 186.529 88.2262 202.304 88.2262Z" fill="#CFD6E4"/>
<path d="M230.865 68.8086H173.685V78.5174H230.865V68.8086Z" fill="#CFD6E4"/>
<path d="M202.304 78.5172C218.078 78.5172 230.866 74.1704 230.866 68.8084C230.866 63.4464 218.078 59.0996 202.304 59.0996C186.529 59.0996 173.742 63.4464 173.742 68.8084C173.742 74.1704 186.529 78.5172 202.304 78.5172Z" fill="#D9E0EF"/>
<path d="M210.828 76.0333C226.602 76.0333 239.39 71.6866 239.39 66.3245C239.39 60.9625 226.602 56.6157 210.828 56.6157C195.053 56.6157 182.266 60.9625 182.266 66.3245C182.266 71.6866 195.053 76.0333 210.828 76.0333Z" fill="#A6B0C3"/>
<path d="M239.446 56.6724H182.266V66.3812H239.446V56.6724Z" fill="#A6B0C3"/>
<path d="M210.828 66.381C226.602 66.381 239.39 62.0342 239.39 56.6722C239.39 51.3101 226.602 46.9634 210.828 46.9634C195.053 46.9634 182.266 51.3101 182.266 56.6722C182.266 62.0342 195.053 66.381 210.828 66.381Z" fill="#D9E0EF"/>
<path d="M514.285 134.23L514.567 210.208L418.156 244.922L417.874 168.945L514.285 134.23Z" fill="#CFD6E4"/>
<path d="M418.157 244.922L405.062 240.067L404.779 164.09L417.875 168.945L418.157 244.922Z" fill="#B1BDD2"/>
<path d="M417.874 168.945L404.778 164.091L501.189 129.376L514.285 134.23L417.874 168.945Z" fill="#A6B0C3"/>
<path d="M525.575 134.23C525.462 134.174 525.349 134.174 525.236 134.117H525.179C525.123 134.117 525.067 134.117 525.067 134.117C525.01 134.117 524.954 134.117 524.897 134.117C524.841 134.117 524.784 134.117 524.728 134.117C524.671 134.117 524.615 134.117 524.558 134.117C524.502 134.117 524.502 134.117 524.446 134.117C524.389 134.117 524.333 134.117 524.276 134.174C524.22 134.174 524.163 134.174 524.05 134.23H523.994C523.881 134.287 523.768 134.287 523.599 134.343C523.542 134.399 523.43 134.399 523.373 134.456C523.317 134.456 523.26 134.512 523.26 134.512C523.204 134.569 523.147 134.569 523.091 134.625C522.978 134.682 522.922 134.738 522.809 134.795C522.752 134.851 522.696 134.851 522.639 134.907C522.526 134.964 522.414 135.077 522.357 135.133C522.301 135.19 522.244 135.19 522.188 135.246C522.018 135.359 521.906 135.528 521.736 135.641L479.796 180.686L492.892 185.54L534.832 140.496L528.284 138.068L534.832 140.496C534.945 140.326 535.114 140.213 535.283 140.101C535.34 140.044 535.396 140.044 535.453 139.988C535.566 139.931 535.622 139.818 535.735 139.762C535.791 139.705 535.848 139.705 535.904 139.649C536.017 139.592 536.074 139.536 536.186 139.48C536.243 139.423 536.299 139.423 536.356 139.367C536.469 139.31 536.582 139.254 536.751 139.197C536.92 139.141 537.033 139.084 537.203 139.084C537.259 139.084 537.372 139.084 537.428 139.028C537.541 139.028 537.598 139.028 537.711 138.972C537.767 138.972 537.823 138.972 537.88 138.972C537.993 138.972 538.106 138.972 538.162 138.972C538.219 138.972 538.275 138.972 538.275 138.972C538.388 138.972 538.557 139.028 538.67 139.084L525.575 134.23Z" fill="#A6B0C3"/>
<path d="M488.321 196.604L478.612 180.234L465.516 175.38L475.225 191.749C475.507 192.201 475.846 192.54 476.241 192.765C476.354 192.822 476.523 192.878 476.636 192.935L489.732 197.789C489.167 197.62 488.716 197.168 488.321 196.604Z" fill="#A6B0C3"/>
<path d="M480.643 166.856C480.756 166.856 480.869 166.856 480.982 166.912C481.095 166.912 481.208 166.969 481.321 167.025L468.225 162.171C468.112 162.114 467.999 162.114 467.886 162.058C467.774 162.058 467.661 162.001 467.548 162.001H467.491C467.378 162.001 467.322 162.001 467.209 162.001C467.096 162.001 466.983 162.001 466.927 162.058C466.87 162.058 466.814 162.058 466.758 162.114C466.645 162.171 466.532 162.171 466.362 162.227C466.306 162.284 466.193 162.284 466.137 162.34C465.967 162.397 465.854 162.509 465.685 162.566C465.459 162.679 465.29 162.848 465.064 163.017C465.008 163.074 464.951 163.074 464.951 163.13C464.782 163.3 464.613 163.469 464.443 163.638C464.443 163.638 464.443 163.638 464.443 163.695C464.387 163.751 464.33 163.808 464.274 163.921C464.161 164.034 464.048 164.203 463.935 164.372C463.879 164.429 463.879 164.485 463.822 164.542L438.139 203.885L451.235 208.739L476.918 169.396C477.031 169.17 477.2 169.001 477.369 168.831C477.426 168.775 477.482 168.719 477.539 168.606C477.708 168.38 477.877 168.211 478.103 168.041C478.16 167.985 478.216 167.985 478.216 167.928C478.386 167.759 478.611 167.646 478.837 167.477C479.063 167.364 479.289 167.251 479.514 167.138C479.684 167.082 479.853 167.025 480.079 166.969C480.192 166.969 480.305 166.912 480.418 166.912C480.531 166.912 480.587 166.912 480.7 166.912C480.587 166.856 480.643 166.856 480.643 166.856Z" fill="#A6B0C3"/>
<path d="M447.113 220.537L437.517 205.014L424.422 200.16L434.018 215.682C434.356 216.247 434.808 216.642 435.372 216.868L448.468 221.722C447.904 221.496 447.452 221.101 447.113 220.537Z" fill="#A6B0C3"/>
<path d="M427.244 187.289C427.132 187.233 427.019 187.233 426.906 187.177C426.849 187.177 426.736 187.177 426.68 187.12H426.624H426.567C426.454 187.12 426.285 187.12 426.172 187.12C426.115 187.12 426.059 187.12 426.003 187.12C425.946 187.12 425.833 187.177 425.777 187.177C425.664 187.233 425.495 187.233 425.382 187.289C425.325 187.346 425.212 187.346 425.156 187.402C425.043 187.459 424.93 187.515 424.874 187.572C424.817 187.572 424.817 187.628 424.761 187.628C424.591 187.741 424.366 187.854 424.196 188.023C424.14 188.08 424.083 188.08 424.083 188.136C423.914 188.249 423.801 188.362 423.688 188.531C423.632 188.588 423.575 188.644 423.575 188.644C423.575 188.701 423.519 188.701 423.519 188.701C423.35 188.87 423.237 189.039 423.124 189.209L391.57 232.503C391.514 232.56 391.514 232.616 391.457 232.672C391.344 232.842 391.232 233.011 391.119 233.237C391.062 233.293 391.062 233.35 391.006 233.406C391.006 233.463 390.949 233.519 390.949 233.519C390.893 233.576 390.893 233.632 390.836 233.745C390.78 233.914 390.667 234.084 390.611 234.253C390.611 234.309 390.554 234.366 390.554 234.422C390.554 234.479 390.498 234.479 390.498 234.535C390.498 234.592 390.441 234.648 390.441 234.761C390.385 234.93 390.328 235.1 390.272 235.269C390.272 235.325 390.272 235.382 390.216 235.438C390.216 235.495 390.216 235.551 390.159 235.551C390.159 235.608 390.103 235.721 390.103 235.777C390.046 236.003 390.046 236.172 389.99 236.398V236.454C389.99 236.511 389.99 236.567 389.99 236.624C389.99 236.793 389.99 236.906 389.99 237.075C389.99 237.132 389.99 237.245 389.99 237.301C389.99 237.414 389.99 237.527 389.99 237.64C389.99 237.809 390.046 238.035 390.046 238.204C390.046 238.317 390.103 238.43 390.103 238.543C390.159 238.712 390.216 238.882 390.272 239.051C390.328 239.107 390.328 239.22 390.385 239.277C390.498 239.502 390.611 239.728 390.78 239.954C391.119 240.406 391.514 240.688 391.965 240.857L405.061 245.712C404.609 245.542 404.214 245.26 403.876 244.808C403.706 244.583 403.593 244.357 403.48 244.131C403.424 244.075 403.424 243.962 403.368 243.905C403.311 243.736 403.255 243.567 403.198 243.397C403.198 243.284 403.142 243.172 403.142 243.059C403.085 242.889 403.085 242.72 403.085 242.494C403.085 242.381 403.085 242.268 403.085 242.155C403.085 241.93 403.085 241.704 403.085 241.478C403.085 241.422 403.085 241.365 403.085 241.309C403.142 241.027 403.142 240.744 403.255 240.406C403.255 240.349 403.255 240.293 403.311 240.293C403.368 240.011 403.48 239.728 403.593 239.39C403.593 239.333 403.65 239.333 403.65 239.277C403.763 238.994 403.876 238.712 404.045 238.43C404.045 238.374 404.101 238.317 404.101 238.317C404.271 238.035 404.44 237.753 404.609 237.47L436.163 194.176C436.332 193.95 436.502 193.781 436.671 193.555C436.728 193.499 436.784 193.442 436.784 193.442C436.897 193.329 437.066 193.16 437.179 193.047C437.235 192.991 437.292 192.991 437.292 192.934C437.461 192.765 437.631 192.652 437.856 192.539C437.913 192.539 437.913 192.483 437.969 192.483C438.139 192.37 438.364 192.313 438.534 192.2C438.76 192.144 438.985 192.087 439.155 192.031C439.38 191.975 439.606 191.975 439.776 192.031H439.832C440.001 192.031 440.227 192.087 440.397 192.144L427.244 187.289Z" fill="#A6B0C3"/>
<path d="M536.752 139.085C538.163 138.577 539.461 139.085 540.195 140.496C541.211 142.585 540.534 145.915 538.671 147.947L493.514 196.435C492.893 197.056 492.272 197.507 491.651 197.733C490.353 198.184 489.111 197.789 488.321 196.547L478.612 180.178L452.985 219.408C452.251 220.537 451.348 221.271 450.389 221.61C450.219 221.666 450.05 221.723 449.881 221.779C448.752 222.005 447.736 221.553 447.115 220.537L437.519 205.014L409.296 243.737C408.562 244.696 407.772 245.374 406.925 245.656C405.739 246.051 404.611 245.825 403.82 244.809C402.466 243.059 402.804 239.786 404.498 237.415L436.051 194.12C436.729 193.161 437.575 192.483 438.422 192.201C438.648 192.145 438.874 192.088 439.043 192.032C440.115 191.862 441.075 192.37 441.696 193.33L451.122 208.627L476.806 169.284C477.539 168.211 478.443 167.421 479.402 167.082C479.572 167.026 479.741 166.97 479.967 166.913C481.096 166.687 482.112 167.195 482.733 168.211L492.949 185.484L534.889 140.44C535.454 139.762 536.075 139.367 536.752 139.085Z" fill="#D9E0EF"/>
<path d="M117.463 101.773C117.576 101.773 117.689 101.773 117.858 101.773C117.915 101.773 117.971 101.773 118.028 101.773C118.141 101.773 118.197 101.773 118.31 101.83C118.423 101.83 118.479 101.886 118.592 101.886L108.263 98.9508C108.206 98.9508 108.15 98.8944 108.093 98.8944C108.037 98.8944 108.037 98.8944 107.98 98.8944C107.867 98.8944 107.811 98.8379 107.698 98.8379C107.642 98.8379 107.642 98.8379 107.585 98.8379H107.529C107.416 98.8379 107.303 98.8379 107.134 98.8379C107.077 98.8379 107.077 98.8379 107.021 98.8379C106.851 98.8379 106.682 98.8943 106.569 98.9508L65.7583 109.901L76.088 112.837L116.899 101.886C117.068 101.83 117.238 101.83 117.35 101.773C117.35 101.773 117.407 101.773 117.463 101.773Z" fill="#B1BDD2"/>
<path d="M116.844 101.886C119.327 101.209 121.359 103.41 121.359 106.741L121.19 198.692C121.19 202.022 119.158 205.296 116.674 205.974L75.8634 216.924C73.3797 217.602 71.3476 215.4 71.3476 212.07L71.517 120.118C71.517 116.788 73.549 113.514 76.0327 112.837L116.844 101.886Z" fill="#D9E0EF"/>
<path d="M74.9593 214.271C74.9028 214.271 74.7899 214.271 74.677 214.101C74.3948 213.819 74.0561 213.085 74.0561 212.013L74.2255 120.061C74.2255 117.634 75.7495 115.659 76.7656 115.376L117.576 104.426C117.633 104.426 117.689 104.426 117.746 104.426C117.802 104.426 117.915 104.426 118.028 104.595C118.31 104.877 118.649 105.611 118.649 106.684L118.48 198.635C118.48 201.062 117.012 203.038 115.939 203.264L75.1286 214.214C75.0722 214.271 75.0157 214.271 74.9593 214.271Z" fill="#CFD6E4"/>
<path d="M65.7029 109.901C65.6465 109.901 65.59 109.958 65.5336 109.958C65.4771 109.958 65.4771 110.014 65.4207 110.014C65.3078 110.071 65.1949 110.127 65.082 110.184C65.0255 110.184 64.9691 110.24 64.9127 110.24C64.7998 110.296 64.6869 110.353 64.5175 110.466C64.4611 110.466 64.4611 110.522 64.4046 110.522C64.4046 110.522 64.4046 110.522 64.3482 110.522C64.2353 110.579 64.1788 110.635 64.1224 110.692C64.0659 110.748 64.0095 110.804 63.9531 110.804C63.8402 110.861 63.7837 110.974 63.6708 111.03C63.6144 111.087 63.5579 111.087 63.5579 111.143C63.3886 111.313 63.2757 111.482 63.1064 111.651C63.0499 111.708 63.0499 111.764 62.9935 111.821C62.8806 111.933 62.7677 112.103 62.7112 112.216C62.7112 112.272 62.6548 112.272 62.6548 112.329L62.5983 112.385C62.429 112.611 62.3161 112.837 62.2032 113.062C62.2032 113.119 62.1468 113.119 62.1468 113.175C62.0903 113.345 61.9774 113.514 61.921 113.683C61.921 113.74 61.921 113.74 61.8645 113.796C61.8645 113.853 61.8081 113.909 61.8081 113.965C61.7517 114.078 61.6952 114.248 61.6388 114.361C61.6388 114.417 61.5823 114.474 61.5823 114.474C61.5823 114.53 61.5823 114.53 61.5259 114.586C61.4694 114.699 61.4694 114.812 61.413 114.982C61.413 115.038 61.3565 115.094 61.3565 115.151C61.3565 115.207 61.3565 115.207 61.3565 115.264C61.3001 115.377 61.3001 115.546 61.2436 115.659C61.2436 115.715 61.2436 115.772 61.1872 115.828V115.885C61.1307 116.11 61.1307 116.336 61.1307 116.562C61.1307 116.788 61.1307 116.957 61.1307 117.183L60.9614 209.134C60.9614 209.247 60.9614 209.36 60.9614 209.473C60.9614 209.586 60.9614 209.699 61.0178 209.812C61.0178 209.925 61.0178 210.094 61.0743 210.207C61.0743 210.376 61.1307 210.489 61.1307 210.658C61.1307 210.771 61.1872 210.884 61.1872 210.997C61.2436 211.166 61.3001 211.279 61.3001 211.392C61.3565 211.505 61.3565 211.618 61.413 211.731C61.4694 211.844 61.5259 211.957 61.5823 212.126C61.6387 212.239 61.6952 212.295 61.7517 212.408C61.8081 212.521 61.921 212.634 61.9774 212.747C62.0339 212.803 62.0903 212.916 62.1468 212.973C62.2597 213.086 62.3161 213.142 62.429 213.255C62.4854 213.311 62.5419 213.368 62.5983 213.424C62.7112 213.537 62.8241 213.594 62.937 213.65C62.9935 213.707 63.0499 213.707 63.1064 213.763C63.2757 213.876 63.5015 213.932 63.6708 213.989L74.0005 216.924C73.7748 216.868 73.6054 216.811 73.4361 216.698C73.3796 216.642 73.3232 216.642 73.2667 216.585C73.1538 216.529 73.041 216.416 72.9281 216.36C72.8716 216.303 72.8152 216.247 72.7587 216.19C72.6458 216.077 72.5894 216.021 72.4765 215.908C72.42 215.852 72.3636 215.739 72.3071 215.682C72.2507 215.569 72.1378 215.456 72.0814 215.343C72.0249 215.231 71.9685 215.174 71.912 215.061C71.8556 214.948 71.7991 214.835 71.7427 214.666C71.6862 214.553 71.6862 214.44 71.6298 214.327C71.5733 214.215 71.5169 214.045 71.5169 213.932C71.4604 213.819 71.4604 213.707 71.4604 213.594C71.404 213.424 71.404 213.311 71.404 213.142C71.404 213.029 71.404 212.86 71.3476 212.747C71.3476 212.521 71.2911 212.352 71.2911 212.126L71.4604 120.175C71.4604 119.949 71.4604 119.779 71.4604 119.554C71.4604 119.328 71.5169 119.102 71.5169 118.876C71.5169 118.82 71.5733 118.707 71.5733 118.651C71.5733 118.481 71.6298 118.368 71.6862 118.255C71.6862 118.143 71.7427 118.086 71.7427 117.973C71.7991 117.86 71.7991 117.747 71.8556 117.578C71.8556 117.522 71.912 117.409 71.912 117.352C71.9685 117.239 72.0249 117.07 72.0814 116.957C72.1378 116.901 72.1378 116.788 72.1943 116.731C72.2507 116.562 72.3636 116.393 72.42 116.223C72.42 116.167 72.4765 116.167 72.4765 116.11C72.5894 115.885 72.7587 115.659 72.8716 115.433C72.9281 115.377 72.9281 115.32 72.9845 115.264C73.0974 115.151 73.1538 114.982 73.2667 114.869C73.3232 114.812 73.3232 114.756 73.3796 114.699C73.4925 114.53 73.6619 114.361 73.8312 114.191C73.8877 114.135 73.9441 114.078 74.0005 114.078C74.1134 114.022 74.1699 113.909 74.2828 113.853C74.3392 113.796 74.3957 113.74 74.4521 113.74C74.5086 113.683 74.6215 113.627 74.6779 113.57C74.7344 113.514 74.7908 113.514 74.7908 113.514C74.9037 113.457 75.0166 113.345 75.1859 113.288C75.2424 113.232 75.2988 113.232 75.3553 113.232C75.4682 113.175 75.581 113.119 75.6939 113.062C75.8068 113.006 75.8633 113.006 75.9762 112.949L65.7029 109.901Z" fill="#A6B0C3"/>
<path d="M99.121 196.547C101.097 196.039 102.677 197.733 102.677 200.386C102.677 203.039 101.097 205.579 99.121 206.143C97.1454 206.651 95.5649 204.958 95.5649 202.305C95.5649 199.652 97.1454 197.055 99.121 196.547Z" fill="#D9E0EF"/>
<path d="M452.531 68.0746L438.081 63.7847C437.911 63.7282 437.742 63.6153 437.573 63.5024L452.023 67.7924C452.192 67.9053 452.362 68.0182 452.531 68.0746Z" fill="#62666E"/>
<path d="M452.024 67.7924L437.574 63.5025L425.777 54.4146L440.227 58.7045L452.024 67.7924Z" fill="#A6B0C3"/>
<path d="M452.87 4.28992C452.983 4.28992 453.039 4.28992 453.152 4.28992C453.209 4.28992 453.265 4.28992 453.265 4.28992C453.322 4.28992 453.434 4.28993 453.491 4.34637C453.547 4.34637 453.604 4.34638 453.717 4.40282L439.266 0.112883C439.21 0.112883 439.21 0.112879 439.153 0.0564328H439.097C439.041 0.0564328 438.928 0.0564465 438.871 0H438.815H438.758C438.645 0 438.589 0 438.476 0H438.42C438.307 0 438.194 0.0564328 438.024 0.0564328L382.9 14.55L397.001 19L452.475 4.34637C452.588 4.28993 452.701 4.28992 452.87 4.28992C452.814 4.34637 452.814 4.34637 452.87 4.28992Z" fill="#A6B0C3"/>
<path d="M395.463 69.5419C395.35 69.4855 395.294 69.429 395.181 69.3726C395.124 69.3161 395.068 69.2597 395.011 69.2597C394.955 69.2033 394.842 69.1468 394.786 69.0339C394.729 68.9775 394.673 68.921 394.673 68.8646C394.616 68.8081 394.56 68.6952 394.503 68.6388C394.447 68.5823 394.447 68.4694 394.39 68.413C394.334 68.3001 394.278 68.2437 394.278 68.1308C394.221 68.0743 394.221 67.9614 394.165 67.905C394.108 67.7921 394.108 67.6792 394.052 67.6227C394.052 67.5098 393.995 67.4534 393.995 67.3405C393.995 67.2276 393.939 67.1147 393.939 67.0018C393.939 66.8889 393.939 66.7761 393.939 66.7196C393.939 66.6067 393.939 66.4374 393.939 66.3245L393.995 24.1589C393.995 23.9896 393.995 23.8202 393.995 23.6509C393.995 23.5944 393.995 23.538 393.995 23.4815C393.995 23.3686 394.052 23.2557 394.052 23.0864C394.052 23.03 394.052 22.9735 394.108 22.9171C394.108 22.8042 394.165 22.6913 394.165 22.6348C394.165 22.5784 394.221 22.522 394.221 22.4655C394.221 22.3526 394.278 22.2397 394.334 22.1833C394.334 22.1268 394.39 22.0704 394.39 22.0139C394.447 21.901 394.503 21.7317 394.56 21.6188C394.56 21.6188 394.56 21.5624 394.616 21.5624C394.673 21.393 394.786 21.2237 394.842 21.1108C394.842 21.0543 394.898 21.0544 394.898 20.9979C395.011 20.8286 395.124 20.6592 395.237 20.4899C395.237 20.4899 395.237 20.4334 395.294 20.4334C395.406 20.2641 395.576 20.0947 395.689 19.9818C395.689 19.9254 395.745 19.9254 395.745 19.869C395.858 19.6996 396.027 19.5867 396.197 19.4738L396.253 19.4174C396.423 19.3045 396.535 19.1916 396.705 19.1351C396.874 19.0223 397.043 18.9658 397.213 18.9094C397.269 18.9094 397.326 18.8529 397.382 18.8529L382.932 14.563C382.875 14.563 382.819 14.563 382.819 14.6194H382.762C382.593 14.6759 382.424 14.7323 382.254 14.8452C382.085 14.9581 381.916 15.0146 381.803 15.1275L381.746 15.1839C381.577 15.2968 381.464 15.4097 381.295 15.579C381.295 15.6355 381.238 15.6355 381.238 15.6919C381.125 15.8613 380.956 15.9741 380.843 16.1435V16.2C380.73 16.3693 380.617 16.5386 380.505 16.7079C380.505 16.7079 380.505 16.7644 380.448 16.7644V16.8208C380.392 16.9902 380.279 17.1031 380.222 17.2724V17.3289C380.166 17.4418 380.109 17.6111 380.053 17.724V17.7804C380.053 17.8369 380.053 17.8369 379.997 17.8933C379.94 18.0062 379.94 18.0627 379.884 18.1756V18.232C379.884 18.2885 379.884 18.2885 379.884 18.3449C379.884 18.4578 379.827 18.5707 379.827 18.6271C379.827 18.6836 379.827 18.6836 379.827 18.74V18.7965C379.827 18.9094 379.771 19.0223 379.771 19.1916C379.771 19.2481 379.771 19.2481 379.771 19.3045C379.771 19.3045 379.771 19.3045 379.771 19.3609C379.771 19.5303 379.771 19.6996 379.771 19.869L379.714 62.0345C379.714 62.091 379.714 62.1474 379.714 62.1474C379.714 62.2603 379.714 62.3168 379.714 62.4296C379.714 62.5425 379.714 62.6554 379.714 62.7119C379.714 62.8248 379.771 62.9377 379.771 63.0506C379.771 63.1635 379.827 63.2199 379.827 63.3328C379.827 63.4457 379.884 63.5586 379.94 63.615C379.997 63.6715 379.997 63.7844 380.053 63.8408C380.109 63.9537 380.166 64.0102 380.166 64.123C380.222 64.1795 380.222 64.2924 380.279 64.3488C380.335 64.4617 380.392 64.5182 380.448 64.5746C380.505 64.6311 380.505 64.6875 380.561 64.744C380.617 64.8004 380.674 64.9133 380.787 64.9697C380.843 65.0262 380.9 65.0826 380.956 65.0826C381.013 65.1391 381.125 65.1955 381.238 65.252C381.295 65.3084 381.351 65.3084 381.351 65.3649C381.464 65.4213 381.634 65.4778 381.746 65.5342L396.197 69.8242C396.027 69.7677 395.914 69.7112 395.745 69.6548C395.519 69.6548 395.519 69.5984 395.463 69.5419Z" fill="#A6B0C3"/>
<path d="M452.419 4.40307C454.281 3.89505 455.805 5.532 455.805 8.01564L455.749 36.5212V50.1812V64.4622C455.749 66.2685 454.62 67.7361 453.435 68.0748C452.983 68.1877 452.475 68.1312 452.023 67.7925L440.226 58.7046L397.327 69.8246C395.464 70.3326 393.94 68.6957 393.94 66.212L393.996 24.0465C393.996 21.5628 395.52 19.1356 397.383 18.684L452.419 4.40307Z" fill="#CFD6E4"/>
<path d="M441.58 24.9492C444.91 24.1025 447.563 26.9249 447.563 31.3277C447.563 35.7305 444.854 39.964 441.523 40.8107C438.193 41.6574 435.54 38.8351 435.54 34.4323C435.596 30.0859 438.306 25.7959 441.58 24.9492Z" fill="white"/>
<path d="M424.646 29.126C427.976 28.2793 430.629 31.1016 430.629 35.5044C430.629 39.9073 427.92 44.1408 424.589 44.9875C421.259 45.8342 418.606 43.0118 418.606 38.609C418.662 34.2062 421.315 29.9727 424.646 29.126Z" fill="white"/>
<path d="M407.882 33.4727C411.212 32.626 413.865 35.4483 413.865 39.8511C413.865 44.254 411.155 48.4874 407.825 49.3341C404.495 50.1808 401.842 47.3585 401.842 42.9557C401.898 38.5529 404.551 34.3194 407.882 33.4727Z" fill="white"/>
<path d="M283.079 47.1893C283.023 47.1893 282.966 47.1329 282.854 47.1329C282.797 47.1329 282.684 47.1328 282.628 47.0764C282.571 47.0764 282.515 47.0764 282.515 47.0764C282.402 47.0764 282.346 47.0764 282.233 47.0764C282.176 47.0764 282.176 47.0764 282.12 47.0764C282.007 47.0764 281.894 47.1329 281.725 47.1329L277.322 48.2618C278.225 50.0116 278.789 52.2131 278.789 54.7531C278.789 58.2528 277.717 61.6961 276.024 64.5184L278.451 65.478L274.612 73.3805L266.992 71.1791C266.936 71.1791 266.879 71.1226 266.766 71.1226L266.597 71.0662C263.154 69.8808 260.727 65.9296 260.727 60.5671C260.727 53.2291 265.242 46.1733 270.774 44.7057C272.072 44.367 273.314 44.367 274.443 44.7057L283.079 47.1893Z" fill="#A6B0C3"/>
<path d="M278.846 47.02C284.377 45.5524 288.893 50.3504 288.837 57.6884C288.837 65.0265 284.321 72.0823 278.789 73.5499C273.257 75.0175 268.742 70.2195 268.742 62.9379C268.798 55.5999 273.314 48.4876 278.846 47.02Z" fill="#D4DDE9"/>
<path d="M360.13 62.1476C360.073 62.1476 360.017 62.1476 360.017 62.0911C359.96 62.0911 359.904 62.0911 359.904 62.0911C359.848 62.0911 359.848 62.0911 359.791 62.0911C359.735 62.0911 359.678 62.0911 359.622 62.0911H359.565C359.509 62.0911 359.396 62.0911 359.34 62.1476L356.517 62.8814C357.082 64.0103 357.42 65.4215 357.42 67.0584C357.42 69.3163 356.743 71.5177 355.67 73.324L357.251 73.9449L354.824 79.0251L349.913 77.6139C349.856 77.6139 349.8 77.6139 349.8 77.5575L349.687 77.501C347.486 76.7672 345.905 74.1707 345.905 70.7275C345.905 66.0424 348.784 61.4702 352.397 60.5106C353.243 60.2849 354.034 60.2849 354.767 60.5106L360.13 62.1476Z" fill="#CFD6E4"/>
<path d="M357.419 62.0911C360.975 61.1879 363.854 64.236 363.854 68.9211C363.854 73.6062 360.975 78.1783 357.419 79.0815C353.863 79.9846 350.984 76.9365 350.984 72.2515C350.984 67.5664 353.863 62.9942 357.419 62.0911Z" fill="#D9E0EF"/>
<path d="M147.889 79.8151C147.833 79.8151 147.776 79.8151 147.776 79.7586C147.72 79.7586 147.664 79.7586 147.664 79.7586C147.607 79.7586 147.607 79.7586 147.551 79.7586C147.494 79.7586 147.438 79.7586 147.381 79.7586H147.325C147.268 79.7586 147.156 79.7586 147.099 79.8151L144.277 80.5489C144.841 81.6778 145.18 83.089 145.18 84.7259C145.18 86.9838 144.503 89.1852 143.43 90.9915L145.011 91.6124L142.583 96.6926L137.616 95.2814C137.56 95.2814 137.503 95.2814 137.503 95.225L137.39 95.1685C135.189 94.4347 133.608 91.8382 133.608 88.3949C133.608 83.7099 136.487 79.1377 140.1 78.1781C140.946 77.9523 141.737 77.9523 142.47 78.1781L147.889 79.8151Z" fill="#CFD6E4"/>
<path d="M145.179 79.7029C148.735 78.7998 151.614 81.8479 151.614 86.5329C151.614 91.218 148.735 95.7901 145.179 96.6933C141.623 97.5964 138.744 94.5483 138.744 89.8633C138.688 85.1782 141.567 80.6625 145.179 79.7029Z" fill="#D9E0EF"/>
<path d="M498.141 87.436C498.085 87.436 498.028 87.3796 497.972 87.3796C497.915 87.3796 497.859 87.3796 497.746 87.3231C497.69 87.3231 497.69 87.3231 497.633 87.3231C497.52 87.3231 497.464 87.3231 497.351 87.3231C497.294 87.3231 497.294 87.3231 497.238 87.3231C497.125 87.3231 497.012 87.3796 496.899 87.3796L492.835 88.4521C493.682 90.089 494.19 92.1211 494.19 94.4354C494.19 97.7093 493.23 100.87 491.65 103.467L493.908 104.37L490.351 111.708L483.296 109.676C483.239 109.676 483.183 109.62 483.126 109.62L482.957 109.563C479.74 108.491 477.538 104.765 477.538 99.8542C477.538 93.0807 481.715 86.5329 486.852 85.1781C488.037 84.8395 489.222 84.8959 490.239 85.1781L498.141 87.436Z" fill="#A6B0C3"/>
<path d="M494.245 87.2669C499.381 85.9121 503.502 90.315 503.502 97.0886C503.502 103.862 499.325 110.41 494.188 111.765C489.052 113.119 484.931 108.717 484.931 101.943C484.931 95.1694 489.108 88.6216 494.245 87.2669Z" fill="#D4DDE9"/>
<path d="M103.961 142C101.351 142 99.0682 143.43 97.853 145.55C98.7665 145.798 99.6204 146.23 100.369 146.827C101.115 145.623 102.445 144.82 103.961 144.82C106.288 144.82 108.183 146.717 108.183 149.049V154.587L108.936 155.342C110.266 156.673 110.998 158.443 110.998 160.326V149.049C110.998 145.162 107.841 142 103.961 142Z" fill="white"/>
<path d="M83.0603 165.31C84.3895 166.641 86.1565 167.374 88.0365 167.374C89.9161 167.374 91.6831 166.641 93.0123 165.31L95.9985 162.319L94.0074 160.326L91.0216 163.316C90.2243 164.115 89.1635 164.555 88.0358 164.555C86.9076 164.555 85.8473 164.115 85.0499 163.316C84.2529 162.518 83.8139 161.456 83.8139 160.326C83.8139 159.196 84.2529 158.134 85.0503 157.335L89.0338 153.346C88.7353 151.227 89.3968 148.997 91.0191 147.37L83.0603 155.342C81.7308 156.673 80.999 158.443 80.999 160.326C80.999 162.208 81.7308 163.979 83.0603 165.31Z" fill="white"/>
<path d="M108.936 155.342L108.183 154.587L100.974 147.368C100.961 147.354 100.948 147.342 100.935 147.328C100.905 147.299 100.876 147.271 100.847 147.242C100.835 147.231 100.824 147.221 100.813 147.211C100.78 147.18 100.747 147.149 100.714 147.119C100.709 147.115 100.704 147.111 100.7 147.106C100.592 147.009 100.481 146.916 100.369 146.827C100.369 146.827 100.369 146.827 100.369 146.826C99.6204 146.229 98.7664 145.797 97.853 145.549C97.8526 145.55 97.8519 145.551 97.8512 145.552C97.2456 145.388 96.6224 145.306 95.9988 145.306C94.3156 145.306 92.6324 145.905 91.2993 147.104C91.2943 147.109 91.2886 147.114 91.2828 147.119C91.2502 147.148 91.2187 147.178 91.1868 147.208C91.1746 147.22 91.1621 147.231 91.1492 147.242C91.1237 147.266 91.0986 147.291 91.0736 147.316C91.0564 147.333 91.0388 147.35 91.0216 147.367L91.0191 147.37C89.3968 148.996 88.7345 151.226 89.0338 153.345C89.2398 154.806 89.9024 156.213 91.0223 157.335L94.0082 160.325L95.9988 162.319L98.985 165.309L98.9875 165.307L98.985 165.309C100.227 166.553 101.852 167.275 103.594 167.364C103.596 167.364 103.598 167.364 103.6 167.365C103.652 167.367 103.703 167.369 103.755 167.37C103.764 167.37 103.773 167.371 103.781 167.372C103.841 167.373 103.901 167.374 103.961 167.374C104.021 167.374 104.081 167.374 104.141 167.372C104.15 167.372 104.159 167.371 104.167 167.37C104.218 167.369 104.27 167.367 104.322 167.365C104.324 167.365 104.326 167.365 104.328 167.364C106.07 167.275 107.695 166.553 108.937 165.309C110.179 164.065 110.9 162.438 110.989 160.693C110.989 160.691 110.989 160.689 110.989 160.687C110.992 160.635 110.994 160.584 110.995 160.531C110.995 160.523 110.996 160.514 110.997 160.505C110.998 160.445 110.999 160.386 110.999 160.325C110.998 158.443 110.266 156.673 108.936 155.342ZM108.178 160.542C108.177 160.552 108.176 160.562 108.175 160.572C108.171 160.634 108.168 160.696 108.161 160.757C108.161 160.759 108.16 160.761 108.16 160.763C107.957 162.746 106.378 164.328 104.397 164.533C104.396 164.533 104.393 164.533 104.391 164.533C104.33 164.54 104.269 164.544 104.206 164.547C104.196 164.548 104.186 164.549 104.176 164.55C104.105 164.554 104.033 164.555 103.96 164.555C103.888 164.555 103.817 164.554 103.745 164.55C103.735 164.549 103.725 164.548 103.714 164.547C103.653 164.543 103.591 164.54 103.529 164.533C103.528 164.533 103.525 164.533 103.523 164.533C102.56 164.434 101.668 164.012 100.974 163.316L97.9884 160.326L96.9223 159.258L95.9978 158.332L93.0119 155.341C91.366 153.693 91.3653 151.011 93.0105 149.362C93.0112 149.361 93.0112 149.361 93.0119 149.361C93.023 149.35 93.0345 149.339 93.046 149.328C93.0861 149.29 93.1262 149.25 93.1674 149.213C93.1789 149.202 93.1911 149.193 93.2029 149.183C93.2456 149.145 93.2875 149.108 93.3312 149.073C93.3359 149.069 93.3398 149.066 93.3441 149.063C94.0934 148.454 95.0198 148.123 95.9978 148.123C96.3292 148.123 96.6546 148.161 96.9693 148.235C97.576 148.378 98.1429 148.653 98.6342 149.049C98.6403 149.054 98.6468 149.058 98.6525 149.063C98.6564 149.066 98.66 149.069 98.664 149.072C98.7084 149.108 98.7517 149.146 98.7944 149.184C98.8051 149.194 98.8166 149.203 98.8274 149.213C98.8704 149.252 98.913 149.293 98.9549 149.334C98.9639 149.343 98.9736 149.351 98.9822 149.36L99.7358 150.115L102.964 153.348L106.944 157.335C107.742 158.133 108.181 159.196 108.181 160.325C108.183 160.399 108.181 160.47 108.178 160.542Z" fill="white"/>
</svg>
