<svg width="22" height="22" viewBox="0 0 22 22" fill="none" xmlns="http://www.w3.org/2000/svg">
<path d="M9.5 20.7333L0.700003 11.9333C0.566669 11.8 0.472002 11.6556 0.416002 11.5C0.360891 11.3444 0.333336 11.1778 0.333336 11C0.333336 10.8222 0.360891 10.6556 0.416002 10.5C0.472002 10.3444 0.566669 10.2 0.700003 10.0667L9.5 1.26666C9.74445 1.02222 10.0498 0.894221 10.416 0.882665C10.7831 0.871998 11.1 0.999998 11.3667 1.26666C11.6333 1.51111 11.7724 1.81644 11.784 2.18266C11.7947 2.54978 11.6667 2.86666 11.4 3.13333L4.86667 9.66667H19.7667C20.1444 9.66667 20.4613 9.79422 20.7173 10.0493C20.9724 10.3053 21.1 10.6222 21.1 11C21.1 11.3778 20.9724 11.6942 20.7173 11.9493C20.4613 12.2053 20.1444 12.3333 19.7667 12.3333H4.86667L11.4 18.8667C11.6444 19.1111 11.7724 19.4222 11.784 19.8C11.7947 20.1778 11.6667 20.4889 11.4 20.7333C11.1556 21 10.8444 21.1333 10.4667 21.1333C10.0889 21.1333 9.76667 21 9.5 20.7333V20.7333Z" fill="white"/>
</svg>
