<svg width="22" height="22" viewBox="0 0 22 22" fill="none" xmlns="http://www.w3.org/2000/svg">
<path d="M11 21.1C10.8222 21.1 10.6556 21.072 10.5 21.016C10.3444 20.9609 10.2 20.8666 10.0667 20.7333L1.26667 11.9333C1 11.6666 0.866669 11.3498 0.866669 10.9826C0.866669 10.6164 1 10.3 1.26667 10.0333C1.53334 9.76665 1.84445 9.63331 2.2 9.63331C2.55556 9.63331 2.86667 9.76665 3.13334 10.0333L9.66667 16.5666V1.63331C9.66667 1.25554 9.79467 0.944424 10.0507 0.69998C10.3058 0.455535 10.6222 0.333313 11 0.333313C11.3778 0.333313 11.6947 0.460869 11.9507 0.71598C12.2058 0.97198 12.3333 1.28887 12.3333 1.66665V16.5666L18.8667 10.0333C19.1333 9.76665 19.4444 9.63331 19.8 9.63331C20.1556 9.63331 20.4667 9.76665 20.7333 10.0333C21 10.3 21.1333 10.6164 21.1333 10.9826C21.1333 11.3498 21 11.6666 20.7333 11.9333L11.9333 20.7333C11.8 20.8666 11.6556 20.9609 11.5 21.016C11.3444 21.072 11.1778 21.1 11 21.1V21.1Z" fill="rgb(220 38 38)"/>
</svg>
