<svg width="24" height="24" viewBox="0 0 24 24" fill="none" xmlns="http://www.w3.org/2000/svg">
<path d="M17.6667 15.6667H16.6133L16.24 15.3067C17.0733 14.3386 17.6823 13.1984 18.0234 11.9675C18.3645 10.7366 18.4294 9.44554 18.2133 8.18667C17.5867 4.48 14.4933 1.52 10.76 1.06667C9.44748 0.900622 8.11438 1.03703 6.8627 1.46545C5.61101 1.89388 4.47392 2.60296 3.53844 3.53844C2.60296 4.47393 1.89387 5.61102 1.46545 6.8627C1.03703 8.11439 0.900618 9.44749 1.06666 10.76C1.52 14.4933 4.48 17.5867 8.18666 18.2133C9.44554 18.4294 10.7366 18.3645 11.9675 18.0234C13.1984 17.6823 14.3386 17.0733 15.3067 16.24L15.6667 16.6133V17.6667L21.3333 23.3333C21.88 23.88 22.7733 23.88 23.32 23.3333C23.8667 22.7867 23.8667 21.8933 23.32 21.3467L17.6667 15.6667ZM9.66666 15.6667C6.34666 15.6667 3.66666 12.9867 3.66666 9.66667C3.66666 6.34667 6.34666 3.66667 9.66666 3.66667C12.9867 3.66667 15.6667 6.34667 15.6667 9.66667C15.6667 12.9867 12.9867 15.6667 9.66666 15.6667Z" fill="#201E50"/>
</svg>
