<svg width="28" height="28" viewBox="0 0 28 28" fill="none" xmlns="http://www.w3.org/2000/svg">
<path d="M10.6667 20L20 14L10.6667 8V20ZM14 27.3333C12.1556 27.3333 10.4222 26.9831 8.8 26.2827C7.17778 25.5831 5.76667 24.6333 4.56667 23.4333C3.36667 22.2333 2.41689 20.8222 1.71733 19.2C1.01689 17.5778 0.666668 15.8444 0.666668 14C0.666668 12.1556 1.01689 10.4222 1.71733 8.8C2.41689 7.17778 3.36667 5.76666 4.56667 4.56666C5.76667 3.36666 7.17778 2.41644 8.8 1.716C10.4222 1.01644 12.1556 0.666664 14 0.666664C15.8444 0.666664 17.5778 1.01644 19.2 1.716C20.8222 2.41644 22.2333 3.36666 23.4333 4.56666C24.6333 5.76666 25.5831 7.17778 26.2827 8.8C26.9831 10.4222 27.3333 12.1556 27.3333 14C27.3333 15.8444 26.9831 17.5778 26.2827 19.2C25.5831 20.8222 24.6333 22.2333 23.4333 23.4333C22.2333 24.6333 20.8222 25.5831 19.2 26.2827C17.5778 26.9831 15.8444 27.3333 14 27.3333Z" fill="white"/>
</svg>
