<svg width="22" height="22" viewBox="0 0 22 22" fill="none" xmlns="http://www.w3.org/2000/svg">
<path d="M11 21.6667C10.6222 21.6667 10.3058 21.5387 10.0507 21.2827C9.79467 21.0276 9.66667 20.7111 9.66667 20.3334V5.43336L3.16667 11.9334C2.9 12.2 2.58311 12.3334 2.216 12.3334C1.84978 12.3334 1.53334 12.2 1.26667 11.9334C1 11.6667 0.866669 11.3556 0.866669 11C0.866669 10.6445 1 10.3334 1.26667 10.0667L10.0667 1.26669C10.2 1.13336 10.3444 1.03869 10.5 0.982691C10.6556 0.92758 10.8222 0.900024 11 0.900024C11.1778 0.900024 11.3502 0.92758 11.5173 0.982691C11.6836 1.03869 11.8222 1.13336 11.9333 1.26669L20.7333 10.0667C21 10.3334 21.1333 10.6445 21.1333 11C21.1333 11.3556 21 11.6667 20.7333 11.9334C20.4667 12.2 20.1498 12.3334 19.7827 12.3334C19.4164 12.3334 19.1 12.2 18.8333 11.9334L12.3333 5.43336V20.3334C12.3333 20.7111 12.2058 21.0276 11.9507 21.2827C11.6947 21.5387 11.3778 21.6667 11 21.6667Z" fill="rgb(22 163 74)"/>
</svg>
